<mxfile host="Electron" modified="2023-10-14T23:33:37.704Z" agent="Mozilla/5.0 (X11; Linux x86_64) AppleWebKit/537.36 (KHTML, like Gecko) draw.io/22.0.2 Chrome/114.0.5735.289 Electron/25.8.4 Safari/537.36" etag="67gDbl7LRsWFZsQWkYam" version="22.0.2" type="device">
  <diagram name="Reprogramming Mode Sequence" id="fo18u6Ch1KVScq3Fo-Wy">
    <mxGraphModel dx="2152" dy="1611" grid="1" gridSize="10" guides="1" tooltips="1" connect="1" arrows="1" fold="1" page="1" pageScale="1" pageWidth="800" pageHeight="350" background="#999999" math="0" shadow="0">
      <root>
        <object label="" description="Sequence diagram for USB programming the sensor node." rev="1.0" id="0">
          <mxCell />
        </object>
        <object label="Title Block" id="1">
          <mxCell style="locked=1;" parent="0" />
        </object>
        <mxCell id="h7L3MlKvrl_dhOmhB3lf-10" value="Prepared with: draw.io v22.0.0" style="strokeWidth=1;shadow=0;dashed=0;align=center;html=1;shape=mxgraph.mockup.text.textBox;fontColor=#666666;align=left;fontSize=17;spacingLeft=4;spacingTop=-3;whiteSpace=wrap;strokeColor=#333333;mainText=;fillColor=none;fontFamily=Open Sans;movable=1;resizable=1;rotatable=1;deletable=1;editable=1;locked=0;connectable=1;" parent="1" vertex="1">
          <mxGeometry x="220" y="300" width="280" height="30" as="geometry" />
        </mxCell>
        <object label="&lt;div align=&quot;left&quot;&gt;Sheet %pagenumber%/%pagecount%&lt;/div&gt;" placeholders="1" id="h7L3MlKvrl_dhOmhB3lf-12">
          <mxCell style="strokeWidth=1;shadow=0;dashed=0;align=left;html=1;shape=mxgraph.mockup.text.textBox;fontColor=#666666;align=left;fontSize=17;spacingLeft=4;spacingTop=-3;whiteSpace=wrap;strokeColor=#333333;mainText=;fillColor=none;fontFamily=Open Sans;movable=1;resizable=1;rotatable=1;deletable=1;editable=1;locked=0;connectable=1;" parent="1" vertex="1">
            <mxGeometry x="60" y="300" width="160" height="30" as="geometry" />
          </mxCell>
        </object>
        <object label="Date: &lt;font style=&quot;font-size: 17px;&quot;&gt;%date{ddd mmm dd yyyy HH:MM:ss}%&lt;/font&gt;" placeholders="1" id="h7L3MlKvrl_dhOmhB3lf-13">
          <mxCell style="strokeWidth=1;shadow=0;dashed=0;align=center;html=1;shape=mxgraph.mockup.text.textBox;fontColor=#666666;align=left;fontSize=17;spacingLeft=4;spacingTop=-3;whiteSpace=wrap;strokeColor=#333333;mainText=;fillColor=none;fontFamily=Open Sans;movable=1;resizable=1;rotatable=1;deletable=1;editable=1;locked=0;connectable=1;" parent="1" vertex="1">
            <mxGeometry x="500" y="300" width="280" height="30" as="geometry" />
          </mxCell>
        </object>
        <object label="&lt;b&gt;Title: %page%&lt;/b&gt;" placeholders="1" id="h7L3MlKvrl_dhOmhB3lf-14">
          <mxCell style="strokeWidth=1;shadow=0;dashed=0;align=center;html=1;shape=mxgraph.mockup.text.textBox;fontColor=#666666;align=left;fontSize=17;spacingLeft=4;spacingTop=-3;whiteSpace=wrap;strokeColor=#333333;mainText=;fillColor=none;fontFamily=Open Sans;movable=1;resizable=1;rotatable=1;deletable=1;editable=1;locked=0;connectable=1;" parent="1" vertex="1">
            <mxGeometry x="60" y="240" width="720" height="30" as="geometry" />
          </mxCell>
        </object>
        <object label="Filename: %filename%" placeholders="1" id="h7L3MlKvrl_dhOmhB3lf-15">
          <mxCell style="strokeWidth=1;shadow=0;dashed=0;align=center;html=1;shape=mxgraph.mockup.text.textBox;fontColor=#666666;align=left;fontSize=17;spacingLeft=4;spacingTop=-3;whiteSpace=wrap;strokeColor=#333333;mainText=;fillColor=none;fontFamily=Open Sans;movable=1;resizable=1;rotatable=1;deletable=1;editable=1;locked=0;connectable=1;" parent="1" vertex="1">
            <mxGeometry x="60" y="270" width="560" height="30" as="geometry" />
          </mxCell>
        </object>
        <object label="&lt;div align=&quot;left&quot;&gt;%description%&lt;/div&gt;" placeholders="1" id="h7L3MlKvrl_dhOmhB3lf-16">
          <mxCell style="strokeWidth=1;shadow=0;dashed=0;html=1;shape=mxgraph.mockup.text.textBox;fontColor=#666666;align=left;verticalAlign=top;fontSize=12;spacingLeft=4;spacingTop=-3;whiteSpace=wrap;strokeColor=#333333;mainText=;fillColor=none;fontFamily=Open Sans;movable=1;resizable=1;rotatable=1;deletable=1;editable=1;locked=0;connectable=1;" parent="1" vertex="1">
            <mxGeometry x="60" y="200" width="720" height="40" as="geometry" />
          </mxCell>
        </object>
        <object label="&lt;b&gt;Rev: %rev%&lt;br&gt;&lt;/b&gt;" placeholders="1" id="EyKvBmyPNv_MzgSUc5b6-1">
          <mxCell style="strokeWidth=1;shadow=0;dashed=0;align=center;html=1;shape=mxgraph.mockup.text.textBox;fontColor=#666666;align=left;fontSize=17;spacingLeft=4;spacingTop=-3;whiteSpace=wrap;strokeColor=#333333;mainText=;fillColor=none;fontFamily=Open Sans;movable=1;resizable=1;rotatable=1;deletable=1;editable=1;locked=0;connectable=1;" parent="1" vertex="1">
            <mxGeometry x="620" y="270" width="160" height="30" as="geometry" />
          </mxCell>
        </object>
        <object label="Drawing Frame" id="2jkEU8j2_UPUL1MGRyPS-1">
          <mxCell style="locked=1;" parent="0" />
        </object>
        <mxCell id="2jkEU8j2_UPUL1MGRyPS-2" value="" style="rounded=0;whiteSpace=wrap;html=1;fillColor=none;strokeWidth=3;movable=1;resizable=1;rotatable=1;deletable=1;editable=1;locked=0;connectable=1;" parent="2jkEU8j2_UPUL1MGRyPS-1" vertex="1">
          <mxGeometry x="-150" y="-540" width="930" height="870" as="geometry" />
        </mxCell>
        <object label="Document" id="NbdiYjX3MhI7OpqD2NvG-1">
          <mxCell parent="0" />
        </object>
        <mxCell id="Iwt6Ft-PqrTWGJXxDrMG-19" value="ch340" style="shape=umlLifeline;perimeter=lifelinePerimeter;whiteSpace=wrap;html=1;container=1;dropTarget=0;collapsible=0;recursiveResize=0;outlineConnect=0;portConstraint=eastwest;newEdgeStyle={&quot;curved&quot;:0,&quot;rounded&quot;:0};fontFamily=Open Sans;fillColor=#F0F0F0;" vertex="1" parent="NbdiYjX3MhI7OpqD2NvG-1">
          <mxGeometry x="80" y="-505" width="100" height="680" as="geometry" />
        </mxCell>
        <mxCell id="Iwt6Ft-PqrTWGJXxDrMG-23" value="" style="html=1;points=[[0,0,0,0,5],[0,1,0,0,-5],[1,0,0,0,5],[1,1,0,0,-5]];perimeter=orthogonalPerimeter;outlineConnect=0;targetShapes=umlLifeline;portConstraint=eastwest;newEdgeStyle={&quot;curved&quot;:0,&quot;rounded&quot;:0};fontFamily=Open Sans;fillColor=#F0F0F0;" vertex="1" parent="Iwt6Ft-PqrTWGJXxDrMG-19">
          <mxGeometry x="45" y="60" width="10" height="30" as="geometry" />
        </mxCell>
        <mxCell id="Iwt6Ft-PqrTWGJXxDrMG-41" value="" style="html=1;points=[[0,0,0,0,5],[0,1,0,0,-5],[1,0,0,0,5],[1,1,0,0,-5]];perimeter=orthogonalPerimeter;outlineConnect=0;targetShapes=umlLifeline;portConstraint=eastwest;newEdgeStyle={&quot;curved&quot;:0,&quot;rounded&quot;:0};fontFamily=Open Sans;fillColor=#F0F0F0;" vertex="1" parent="Iwt6Ft-PqrTWGJXxDrMG-19">
          <mxGeometry x="45" y="170" width="10" height="30" as="geometry" />
        </mxCell>
        <mxCell id="Iwt6Ft-PqrTWGJXxDrMG-51" value="" style="html=1;points=[[0,0,0,0,5],[0,1,0,0,-5],[1,0,0,0,5],[1,1,0,0,-5]];perimeter=orthogonalPerimeter;outlineConnect=0;targetShapes=umlLifeline;portConstraint=eastwest;newEdgeStyle={&quot;curved&quot;:0,&quot;rounded&quot;:0};fontFamily=Open Sans;fillColor=#F0F0F0;" vertex="1" parent="Iwt6Ft-PqrTWGJXxDrMG-19">
          <mxGeometry x="45" y="280" width="10" height="30" as="geometry" />
        </mxCell>
        <mxCell id="Iwt6Ft-PqrTWGJXxDrMG-60" value="" style="html=1;points=[[0,0,0,0,5],[0,1,0,0,-5],[1,0,0,0,5],[1,1,0,0,-5]];perimeter=orthogonalPerimeter;outlineConnect=0;targetShapes=umlLifeline;portConstraint=eastwest;newEdgeStyle={&quot;curved&quot;:0,&quot;rounded&quot;:0};fontFamily=Open Sans;fillColor=#F0F0F0;" vertex="1" parent="Iwt6Ft-PqrTWGJXxDrMG-19">
          <mxGeometry x="45" y="350" width="10" height="110" as="geometry" />
        </mxCell>
        <mxCell id="Iwt6Ft-PqrTWGJXxDrMG-76" value="" style="html=1;points=[[0,0,0,0,5],[0,1,0,0,-5],[1,0,0,0,5],[1,1,0,0,-5]];perimeter=orthogonalPerimeter;outlineConnect=0;targetShapes=umlLifeline;portConstraint=eastwest;newEdgeStyle={&quot;curved&quot;:0,&quot;rounded&quot;:0};fontFamily=Open Sans;fillColor=#F0F0F0;" vertex="1" parent="Iwt6Ft-PqrTWGJXxDrMG-19">
          <mxGeometry x="45" y="480" width="10" height="30" as="geometry" />
        </mxCell>
        <mxCell id="Iwt6Ft-PqrTWGJXxDrMG-69" value="" style="html=1;points=[[0,0,0,0,5],[0,1,0,0,-5],[1,0,0,0,5],[1,1,0,0,-5]];perimeter=orthogonalPerimeter;outlineConnect=0;targetShapes=umlLifeline;portConstraint=eastwest;newEdgeStyle={&quot;curved&quot;:0,&quot;rounded&quot;:0};fontFamily=Open Sans;fillColor=#F0F0F0;" vertex="1" parent="Iwt6Ft-PqrTWGJXxDrMG-19">
          <mxGeometry x="45" y="610" width="10" height="30" as="geometry" />
        </mxCell>
        <mxCell id="Iwt6Ft-PqrTWGJXxDrMG-20" value="U2" style="shape=umlLifeline;perimeter=lifelinePerimeter;whiteSpace=wrap;html=1;container=1;dropTarget=0;collapsible=0;recursiveResize=0;outlineConnect=0;portConstraint=eastwest;newEdgeStyle={&quot;curved&quot;:0,&quot;rounded&quot;:0};fontFamily=Open Sans;fillColor=#F0F0F0;" vertex="1" parent="NbdiYjX3MhI7OpqD2NvG-1">
          <mxGeometry x="280" y="-505" width="100" height="680" as="geometry" />
        </mxCell>
        <mxCell id="Iwt6Ft-PqrTWGJXxDrMG-31" value="" style="html=1;points=[[0,0,0,0,5],[0,1,0,0,-5],[1,0,0,0,5],[1,1,0,0,-5]];perimeter=orthogonalPerimeter;outlineConnect=0;targetShapes=umlLifeline;portConstraint=eastwest;newEdgeStyle={&quot;curved&quot;:0,&quot;rounded&quot;:0};fontFamily=Open Sans;fillColor=#F0F0F0;" vertex="1" parent="Iwt6Ft-PqrTWGJXxDrMG-20">
          <mxGeometry x="45" y="80" width="10" height="30" as="geometry" />
        </mxCell>
        <mxCell id="Iwt6Ft-PqrTWGJXxDrMG-42" value="" style="html=1;points=[[0,0,0,0,5],[0,1,0,0,-5],[1,0,0,0,5],[1,1,0,0,-5]];perimeter=orthogonalPerimeter;outlineConnect=0;targetShapes=umlLifeline;portConstraint=eastwest;newEdgeStyle={&quot;curved&quot;:0,&quot;rounded&quot;:0};fontFamily=Open Sans;fillColor=#F0F0F0;" vertex="1" parent="Iwt6Ft-PqrTWGJXxDrMG-20">
          <mxGeometry x="45" y="190" width="10" height="30" as="geometry" />
        </mxCell>
        <mxCell id="Iwt6Ft-PqrTWGJXxDrMG-52" value="" style="html=1;points=[[0,0,0,0,5],[0,1,0,0,-5],[1,0,0,0,5],[1,1,0,0,-5]];perimeter=orthogonalPerimeter;outlineConnect=0;targetShapes=umlLifeline;portConstraint=eastwest;newEdgeStyle={&quot;curved&quot;:0,&quot;rounded&quot;:0};fontFamily=Open Sans;fillColor=#F0F0F0;" vertex="1" parent="Iwt6Ft-PqrTWGJXxDrMG-20">
          <mxGeometry x="45" y="300" width="10" height="30" as="geometry" />
        </mxCell>
        <mxCell id="Iwt6Ft-PqrTWGJXxDrMG-77" value="" style="html=1;points=[[0,0,0,0,5],[0,1,0,0,-5],[1,0,0,0,5],[1,1,0,0,-5]];perimeter=orthogonalPerimeter;outlineConnect=0;targetShapes=umlLifeline;portConstraint=eastwest;newEdgeStyle={&quot;curved&quot;:0,&quot;rounded&quot;:0};fontFamily=Open Sans;fillColor=#F0F0F0;" vertex="1" parent="Iwt6Ft-PqrTWGJXxDrMG-20">
          <mxGeometry x="45" y="500" width="10" height="30" as="geometry" />
        </mxCell>
        <mxCell id="Iwt6Ft-PqrTWGJXxDrMG-70" value="" style="html=1;points=[[0,0,0,0,5],[0,1,0,0,-5],[1,0,0,0,5],[1,1,0,0,-5]];perimeter=orthogonalPerimeter;outlineConnect=0;targetShapes=umlLifeline;portConstraint=eastwest;newEdgeStyle={&quot;curved&quot;:0,&quot;rounded&quot;:0};fontFamily=Open Sans;fillColor=#F0F0F0;" vertex="1" parent="Iwt6Ft-PqrTWGJXxDrMG-20">
          <mxGeometry x="45" y="630" width="10" height="30" as="geometry" />
        </mxCell>
        <mxCell id="Iwt6Ft-PqrTWGJXxDrMG-68" value="sleep(0.1s)" style="html=1;align=left;spacingLeft=2;endArrow=block;rounded=0;edgeStyle=orthogonalEdgeStyle;curved=0;rounded=0;fontFamily=Open Sans;" edge="1" parent="NbdiYjX3MhI7OpqD2NvG-1">
          <mxGeometry relative="1" as="geometry">
            <mxPoint x="-70" y="35" as="sourcePoint" />
            <Array as="points">
              <mxPoint x="-40" y="65" />
            </Array>
            <mxPoint x="-65" y="65" as="targetPoint" />
          </mxGeometry>
        </mxCell>
        <mxCell id="Iwt6Ft-PqrTWGJXxDrMG-50" value="sleep(0.05s)" style="html=1;align=left;spacingLeft=2;endArrow=block;rounded=0;edgeStyle=orthogonalEdgeStyle;curved=0;rounded=0;fontFamily=Open Sans;" edge="1" parent="NbdiYjX3MhI7OpqD2NvG-1">
          <mxGeometry relative="1" as="geometry">
            <mxPoint x="-70" y="-275" as="sourcePoint" />
            <Array as="points">
              <mxPoint x="-40" y="-245" />
            </Array>
            <mxPoint x="-65" y="-245" as="targetPoint" />
          </mxGeometry>
        </mxCell>
        <mxCell id="Iwt6Ft-PqrTWGJXxDrMG-40" value="sleep(0.1s)" style="html=1;align=left;spacingLeft=2;endArrow=block;rounded=0;edgeStyle=orthogonalEdgeStyle;curved=0;rounded=0;fontFamily=Open Sans;" edge="1" parent="NbdiYjX3MhI7OpqD2NvG-1">
          <mxGeometry relative="1" as="geometry">
            <mxPoint x="-70" y="-385" as="sourcePoint" />
            <Array as="points">
              <mxPoint x="-40" y="-355" />
            </Array>
            <mxPoint x="-65" y="-355" as="targetPoint" />
          </mxGeometry>
        </mxCell>
        <mxCell id="Iwt6Ft-PqrTWGJXxDrMG-26" value="control(DTR=false, RTS=true)" style="html=1;verticalAlign=bottom;endArrow=open;endSize=8;curved=0;rounded=0;fontFamily=Open Sans;entryX=0;entryY=0;entryDx=0;entryDy=5;entryPerimeter=0;" edge="1" parent="NbdiYjX3MhI7OpqD2NvG-1" source="Iwt6Ft-PqrTWGJXxDrMG-22" target="Iwt6Ft-PqrTWGJXxDrMG-23">
          <mxGeometry width="80" relative="1" as="geometry">
            <mxPoint x="-65" y="-430" as="sourcePoint" />
            <mxPoint x="125" y="-430" as="targetPoint" />
          </mxGeometry>
        </mxCell>
        <mxCell id="Iwt6Ft-PqrTWGJXxDrMG-27" value="#DTR: high, #RTS: low" style="html=1;verticalAlign=bottom;endArrow=open;endSize=8;curved=0;rounded=0;fontFamily=Open Sans;entryX=0;entryY=0;entryDx=0;entryDy=5;entryPerimeter=0;exitX=1;exitY=1;exitDx=0;exitDy=-5;exitPerimeter=0;" edge="1" parent="NbdiYjX3MhI7OpqD2NvG-1" source="Iwt6Ft-PqrTWGJXxDrMG-23" target="Iwt6Ft-PqrTWGJXxDrMG-31">
          <mxGeometry width="80" relative="1" as="geometry">
            <mxPoint x="135" y="-415" as="sourcePoint" />
            <mxPoint x="325" y="-415" as="targetPoint" />
          </mxGeometry>
        </mxCell>
        <mxCell id="Iwt6Ft-PqrTWGJXxDrMG-35" value="#RST: low, GPIO0: high" style="html=1;verticalAlign=bottom;endArrow=open;endSize=8;curved=0;rounded=0;fontFamily=Open Sans;exitX=1;exitY=1;exitDx=0;exitDy=-5;exitPerimeter=0;entryX=0;entryY=0;entryDx=0;entryDy=5;entryPerimeter=0;" edge="1" parent="NbdiYjX3MhI7OpqD2NvG-1" source="Iwt6Ft-PqrTWGJXxDrMG-31" target="Iwt6Ft-PqrTWGJXxDrMG-34">
          <mxGeometry width="80" relative="1" as="geometry">
            <mxPoint x="330" y="-405" as="sourcePoint" />
            <mxPoint x="520" y="-405" as="targetPoint" />
          </mxGeometry>
        </mxCell>
        <mxCell id="Iwt6Ft-PqrTWGJXxDrMG-38" value="Put ESP8266 in Reset" style="strokeWidth=2;html=1;shape=mxgraph.flowchart.annotation_2;align=left;labelPosition=right;pointerEvents=1;direction=west;fontFamily=Open Sans;" vertex="1" parent="NbdiYjX3MhI7OpqD2NvG-1">
          <mxGeometry x="550" y="-455" width="60" height="70" as="geometry" />
        </mxCell>
        <mxCell id="Iwt6Ft-PqrTWGJXxDrMG-43" value="control(DTR=true, RTS=false)" style="html=1;verticalAlign=bottom;endArrow=open;endSize=8;curved=0;rounded=0;fontFamily=Open Sans;entryX=0;entryY=0;entryDx=0;entryDy=5;entryPerimeter=0;" edge="1" parent="NbdiYjX3MhI7OpqD2NvG-1" target="Iwt6Ft-PqrTWGJXxDrMG-41" source="Iwt6Ft-PqrTWGJXxDrMG-22">
          <mxGeometry width="80" relative="1" as="geometry">
            <mxPoint x="-40" y="-330" as="sourcePoint" />
            <mxPoint x="150" y="-320" as="targetPoint" />
          </mxGeometry>
        </mxCell>
        <mxCell id="Iwt6Ft-PqrTWGJXxDrMG-44" value="#DTR: low, #RTS: high" style="html=1;verticalAlign=bottom;endArrow=open;endSize=8;curved=0;rounded=0;fontFamily=Open Sans;entryX=0;entryY=0;entryDx=0;entryDy=5;entryPerimeter=0;exitX=1;exitY=1;exitDx=0;exitDy=-5;exitPerimeter=0;" edge="1" parent="NbdiYjX3MhI7OpqD2NvG-1" source="Iwt6Ft-PqrTWGJXxDrMG-41" target="Iwt6Ft-PqrTWGJXxDrMG-42">
          <mxGeometry width="80" relative="1" as="geometry">
            <mxPoint x="160" y="-305" as="sourcePoint" />
            <mxPoint x="350" y="-305" as="targetPoint" />
          </mxGeometry>
        </mxCell>
        <mxCell id="Iwt6Ft-PqrTWGJXxDrMG-46" value="#RST: high, GPIO0: low" style="html=1;verticalAlign=bottom;endArrow=open;endSize=8;curved=0;rounded=0;fontFamily=Open Sans;exitX=1;exitY=1;exitDx=0;exitDy=-5;exitPerimeter=0;entryX=0;entryY=0;entryDx=0;entryDy=5;entryPerimeter=0;" edge="1" parent="NbdiYjX3MhI7OpqD2NvG-1" source="Iwt6Ft-PqrTWGJXxDrMG-42" target="Iwt6Ft-PqrTWGJXxDrMG-45">
          <mxGeometry width="80" relative="1" as="geometry">
            <mxPoint x="355" y="-295" as="sourcePoint" />
            <mxPoint x="545" y="-295" as="targetPoint" />
          </mxGeometry>
        </mxCell>
        <mxCell id="Iwt6Ft-PqrTWGJXxDrMG-47" value="Release ESP8266 from Reset&lt;br&gt;Note: RST has significant&lt;br&gt;capacitance and rises slower&lt;br&gt;than GPIO0 falls" style="strokeWidth=2;html=1;shape=mxgraph.flowchart.annotation_2;align=left;labelPosition=right;pointerEvents=1;direction=west;fontFamily=Open Sans;" vertex="1" parent="NbdiYjX3MhI7OpqD2NvG-1">
          <mxGeometry x="550" y="-345" width="60" height="70" as="geometry" />
        </mxCell>
        <mxCell id="Iwt6Ft-PqrTWGJXxDrMG-54" value="control(DTR=false, RTS=false)" style="html=1;verticalAlign=bottom;endArrow=open;endSize=8;curved=0;rounded=0;fontFamily=Open Sans;entryX=0;entryY=0;entryDx=0;entryDy=5;entryPerimeter=0;" edge="1" parent="NbdiYjX3MhI7OpqD2NvG-1" target="Iwt6Ft-PqrTWGJXxDrMG-51" source="Iwt6Ft-PqrTWGJXxDrMG-22">
          <mxGeometry width="80" relative="1" as="geometry">
            <mxPoint x="-40" y="-210" as="sourcePoint" />
            <mxPoint x="195" y="-200" as="targetPoint" />
          </mxGeometry>
        </mxCell>
        <mxCell id="Iwt6Ft-PqrTWGJXxDrMG-55" value="#DTR: high, #RTS: high" style="html=1;verticalAlign=bottom;endArrow=open;endSize=8;curved=0;rounded=0;fontFamily=Open Sans;entryX=0;entryY=0;entryDx=0;entryDy=5;entryPerimeter=0;exitX=1;exitY=1;exitDx=0;exitDy=-5;exitPerimeter=0;" edge="1" parent="NbdiYjX3MhI7OpqD2NvG-1" source="Iwt6Ft-PqrTWGJXxDrMG-51" target="Iwt6Ft-PqrTWGJXxDrMG-52">
          <mxGeometry width="80" relative="1" as="geometry">
            <mxPoint x="205" y="-185" as="sourcePoint" />
            <mxPoint x="395" y="-185" as="targetPoint" />
          </mxGeometry>
        </mxCell>
        <mxCell id="Iwt6Ft-PqrTWGJXxDrMG-56" value="#RST: high, GPIO0: high" style="html=1;verticalAlign=bottom;endArrow=open;endSize=8;curved=0;rounded=0;fontFamily=Open Sans;exitX=1;exitY=1;exitDx=0;exitDy=-5;exitPerimeter=0;entryX=0;entryY=0;entryDx=0;entryDy=5;entryPerimeter=0;" edge="1" parent="NbdiYjX3MhI7OpqD2NvG-1" source="Iwt6Ft-PqrTWGJXxDrMG-52" target="Iwt6Ft-PqrTWGJXxDrMG-53">
          <mxGeometry width="80" relative="1" as="geometry">
            <mxPoint x="400" y="-175" as="sourcePoint" />
            <mxPoint x="590" y="-175" as="targetPoint" />
          </mxGeometry>
        </mxCell>
        <mxCell id="Iwt6Ft-PqrTWGJXxDrMG-57" value="RST and GPIO0 allowed&lt;br&gt;to float high" style="strokeWidth=2;html=1;shape=mxgraph.flowchart.annotation_2;align=left;labelPosition=right;pointerEvents=1;direction=west;fontFamily=Open Sans;" vertex="1" parent="NbdiYjX3MhI7OpqD2NvG-1">
          <mxGeometry x="550" y="-235" width="60" height="70" as="geometry" />
        </mxCell>
        <mxCell id="Iwt6Ft-PqrTWGJXxDrMG-58" value="SLIP Update Protocol" style="html=1;verticalAlign=bottom;endArrow=block;curved=0;rounded=0;entryX=0;entryY=0;entryDx=0;entryDy=5;entryPerimeter=0;fontFamily=Open Sans;" edge="1" parent="NbdiYjX3MhI7OpqD2NvG-1" source="Iwt6Ft-PqrTWGJXxDrMG-22" target="Iwt6Ft-PqrTWGJXxDrMG-60">
          <mxGeometry relative="1" as="geometry">
            <mxPoint x="290" y="-185" as="sourcePoint" />
            <mxPoint x="360" y="-185" as="targetPoint" />
            <mxPoint as="offset" />
          </mxGeometry>
        </mxCell>
        <mxCell id="Iwt6Ft-PqrTWGJXxDrMG-61" value="" style="html=1;verticalAlign=bottom;endArrow=open;dashed=1;endSize=8;curved=0;rounded=0;exitX=0;exitY=1;exitDx=0;exitDy=-5;fontFamily=Open Sans;" edge="1" source="Iwt6Ft-PqrTWGJXxDrMG-60" parent="NbdiYjX3MhI7OpqD2NvG-1" target="Iwt6Ft-PqrTWGJXxDrMG-22">
          <mxGeometry relative="1" as="geometry">
            <mxPoint x="55" y="-80" as="targetPoint" />
          </mxGeometry>
        </mxCell>
        <mxCell id="Iwt6Ft-PqrTWGJXxDrMG-64" value="" style="html=1;verticalAlign=bottom;endArrow=open;dashed=1;endSize=8;curved=0;rounded=0;exitX=0;exitY=1;exitDx=0;exitDy=-5;fontFamily=Open Sans;" edge="1" source="Iwt6Ft-PqrTWGJXxDrMG-63" parent="NbdiYjX3MhI7OpqD2NvG-1" target="Iwt6Ft-PqrTWGJXxDrMG-60">
          <mxGeometry relative="1" as="geometry">
            <mxPoint x="455" y="-60" as="targetPoint" />
          </mxGeometry>
        </mxCell>
        <mxCell id="Iwt6Ft-PqrTWGJXxDrMG-65" value="SLIP Update Protocol" style="html=1;verticalAlign=bottom;endArrow=block;curved=0;rounded=0;entryX=0;entryY=0;entryDx=0;entryDy=5;entryPerimeter=0;fontFamily=Open Sans;" edge="1" parent="NbdiYjX3MhI7OpqD2NvG-1" source="Iwt6Ft-PqrTWGJXxDrMG-60" target="Iwt6Ft-PqrTWGJXxDrMG-63">
          <mxGeometry relative="1" as="geometry">
            <mxPoint x="290" y="-185" as="sourcePoint" />
            <mxPoint x="360" y="-185" as="targetPoint" />
          </mxGeometry>
        </mxCell>
        <mxCell id="Iwt6Ft-PqrTWGJXxDrMG-72" value="control(DTR=false, RTS=false)" style="html=1;verticalAlign=bottom;endArrow=open;endSize=8;curved=0;rounded=0;fontFamily=Open Sans;entryX=0;entryY=0;entryDx=0;entryDy=5;entryPerimeter=0;" edge="1" parent="NbdiYjX3MhI7OpqD2NvG-1" target="Iwt6Ft-PqrTWGJXxDrMG-69" source="Iwt6Ft-PqrTWGJXxDrMG-22">
          <mxGeometry width="80" relative="1" as="geometry">
            <mxPoint x="-55" y="110" as="sourcePoint" />
            <mxPoint x="205" y="130" as="targetPoint" />
          </mxGeometry>
        </mxCell>
        <mxCell id="Iwt6Ft-PqrTWGJXxDrMG-73" value="#DTR: high, #RTS: high" style="html=1;verticalAlign=bottom;endArrow=open;endSize=8;curved=0;rounded=0;fontFamily=Open Sans;entryX=0;entryY=0;entryDx=0;entryDy=5;entryPerimeter=0;exitX=1;exitY=1;exitDx=0;exitDy=-5;exitPerimeter=0;" edge="1" parent="NbdiYjX3MhI7OpqD2NvG-1" source="Iwt6Ft-PqrTWGJXxDrMG-69" target="Iwt6Ft-PqrTWGJXxDrMG-70">
          <mxGeometry width="80" relative="1" as="geometry">
            <mxPoint x="215" y="145" as="sourcePoint" />
            <mxPoint x="405" y="145" as="targetPoint" />
          </mxGeometry>
        </mxCell>
        <mxCell id="Iwt6Ft-PqrTWGJXxDrMG-74" value="#RST: high, GPIO0: high" style="html=1;verticalAlign=bottom;endArrow=open;endSize=8;curved=0;rounded=0;fontFamily=Open Sans;exitX=1;exitY=1;exitDx=0;exitDy=-5;exitPerimeter=0;entryX=0;entryY=0;entryDx=0;entryDy=5;entryPerimeter=0;" edge="1" parent="NbdiYjX3MhI7OpqD2NvG-1" source="Iwt6Ft-PqrTWGJXxDrMG-70" target="Iwt6Ft-PqrTWGJXxDrMG-71">
          <mxGeometry width="80" relative="1" as="geometry">
            <mxPoint x="410" y="155" as="sourcePoint" />
            <mxPoint x="600" y="155" as="targetPoint" />
          </mxGeometry>
        </mxCell>
        <mxCell id="Iwt6Ft-PqrTWGJXxDrMG-75" value="Toggle ESP8266 Reset" style="strokeWidth=2;html=1;shape=mxgraph.flowchart.annotation_2;align=left;labelPosition=right;pointerEvents=1;direction=west;fontFamily=Open Sans;" vertex="1" parent="NbdiYjX3MhI7OpqD2NvG-1">
          <mxGeometry x="560" y="-25" width="60" height="190" as="geometry" />
        </mxCell>
        <mxCell id="Iwt6Ft-PqrTWGJXxDrMG-79" value="control(DTR=false, RTS=true)" style="html=1;verticalAlign=bottom;endArrow=open;endSize=8;curved=0;rounded=0;fontFamily=Open Sans;entryX=0;entryY=0;entryDx=0;entryDy=5;entryPerimeter=0;" edge="1" parent="NbdiYjX3MhI7OpqD2NvG-1" target="Iwt6Ft-PqrTWGJXxDrMG-76" source="Iwt6Ft-PqrTWGJXxDrMG-22">
          <mxGeometry width="80" relative="1" as="geometry">
            <mxPoint x="-55" y="-20" as="sourcePoint" />
            <mxPoint x="205" as="targetPoint" />
          </mxGeometry>
        </mxCell>
        <mxCell id="Iwt6Ft-PqrTWGJXxDrMG-80" value="#DTR: high, #RTS: low" style="html=1;verticalAlign=bottom;endArrow=open;endSize=8;curved=0;rounded=0;fontFamily=Open Sans;entryX=0;entryY=0;entryDx=0;entryDy=5;entryPerimeter=0;exitX=1;exitY=1;exitDx=0;exitDy=-5;exitPerimeter=0;" edge="1" parent="NbdiYjX3MhI7OpqD2NvG-1" source="Iwt6Ft-PqrTWGJXxDrMG-76" target="Iwt6Ft-PqrTWGJXxDrMG-77">
          <mxGeometry width="80" relative="1" as="geometry">
            <mxPoint x="215" y="15" as="sourcePoint" />
            <mxPoint x="405" y="15" as="targetPoint" />
          </mxGeometry>
        </mxCell>
        <mxCell id="Iwt6Ft-PqrTWGJXxDrMG-81" value="#RST: low, GPIO0: high" style="html=1;verticalAlign=bottom;endArrow=open;endSize=8;curved=0;rounded=0;fontFamily=Open Sans;exitX=1;exitY=1;exitDx=0;exitDy=-5;exitPerimeter=0;entryX=0;entryY=0;entryDx=0;entryDy=5;entryPerimeter=0;" edge="1" parent="NbdiYjX3MhI7OpqD2NvG-1" source="Iwt6Ft-PqrTWGJXxDrMG-77" target="Iwt6Ft-PqrTWGJXxDrMG-78">
          <mxGeometry width="80" relative="1" as="geometry">
            <mxPoint x="410" y="25" as="sourcePoint" />
            <mxPoint x="600" y="25" as="targetPoint" />
          </mxGeometry>
        </mxCell>
        <mxCell id="Iwt6Ft-PqrTWGJXxDrMG-18" value="esptool.py" style="shape=umlLifeline;perimeter=lifelinePerimeter;whiteSpace=wrap;html=1;container=1;dropTarget=0;collapsible=0;recursiveResize=0;outlineConnect=0;portConstraint=eastwest;newEdgeStyle={&quot;curved&quot;:0,&quot;rounded&quot;:0};fontFamily=Open Sans;fillColor=#F0F0F0;" vertex="1" parent="NbdiYjX3MhI7OpqD2NvG-1">
          <mxGeometry x="-120" y="-505" width="100" height="680" as="geometry" />
        </mxCell>
        <mxCell id="Iwt6Ft-PqrTWGJXxDrMG-22" value="" style="html=1;points=[[0,0,0,0,5],[0,1,0,0,-5],[1,0,0,0,5],[1,1,0,0,-5]];perimeter=orthogonalPerimeter;outlineConnect=0;targetShapes=umlLifeline;portConstraint=eastwest;newEdgeStyle={&quot;curved&quot;:0,&quot;rounded&quot;:0};fontFamily=Open Sans;fillColor=#F0F0F0;" vertex="1" parent="Iwt6Ft-PqrTWGJXxDrMG-18">
          <mxGeometry x="45" y="50" width="10" height="610" as="geometry" />
        </mxCell>
        <mxCell id="Iwt6Ft-PqrTWGJXxDrMG-33" value="esp8266" style="shape=umlLifeline;perimeter=lifelinePerimeter;whiteSpace=wrap;html=1;container=1;dropTarget=0;collapsible=0;recursiveResize=0;outlineConnect=0;portConstraint=eastwest;newEdgeStyle={&quot;curved&quot;:0,&quot;rounded&quot;:0};fontFamily=Open Sans;fillColor=#F0F0F0;" vertex="1" parent="NbdiYjX3MhI7OpqD2NvG-1">
          <mxGeometry x="480" y="-505" width="100" height="680" as="geometry" />
        </mxCell>
        <mxCell id="Iwt6Ft-PqrTWGJXxDrMG-67" value="Erase and/or Update" style="html=1;align=left;spacingLeft=2;endArrow=block;rounded=0;edgeStyle=orthogonalEdgeStyle;curved=0;rounded=0;fontFamily=Open Sans;" edge="1" parent="Iwt6Ft-PqrTWGJXxDrMG-33">
          <mxGeometry relative="1" as="geometry">
            <mxPoint x="50" y="390" as="sourcePoint" />
            <Array as="points">
              <mxPoint x="80" y="420" />
            </Array>
            <mxPoint x="55.00000000000023" y="420" as="targetPoint" />
            <mxPoint as="offset" />
          </mxGeometry>
        </mxCell>
        <mxCell id="Iwt6Ft-PqrTWGJXxDrMG-34" value="" style="html=1;points=[[0,0,0,0,5],[0,1,0,0,-5],[1,0,0,0,5],[1,1,0,0,-5]];perimeter=orthogonalPerimeter;outlineConnect=0;targetShapes=umlLifeline;portConstraint=eastwest;newEdgeStyle={&quot;curved&quot;:0,&quot;rounded&quot;:0};fontFamily=Open Sans;fillColor=#F0F0F0;" vertex="1" parent="Iwt6Ft-PqrTWGJXxDrMG-33">
          <mxGeometry x="45" y="100" width="10" height="10" as="geometry" />
        </mxCell>
        <mxCell id="Iwt6Ft-PqrTWGJXxDrMG-45" value="" style="html=1;points=[[0,0,0,0,5],[0,1,0,0,-5],[1,0,0,0,5],[1,1,0,0,-5]];perimeter=orthogonalPerimeter;outlineConnect=0;targetShapes=umlLifeline;portConstraint=eastwest;newEdgeStyle={&quot;curved&quot;:0,&quot;rounded&quot;:0};fontFamily=Open Sans;fillColor=#F0F0F0;" vertex="1" parent="Iwt6Ft-PqrTWGJXxDrMG-33">
          <mxGeometry x="45" y="210" width="10" height="10" as="geometry" />
        </mxCell>
        <mxCell id="Iwt6Ft-PqrTWGJXxDrMG-53" value="" style="html=1;points=[[0,0,0,0,5],[0,1,0,0,-5],[1,0,0,0,5],[1,1,0,0,-5]];perimeter=orthogonalPerimeter;outlineConnect=0;targetShapes=umlLifeline;portConstraint=eastwest;newEdgeStyle={&quot;curved&quot;:0,&quot;rounded&quot;:0};fontFamily=Open Sans;fillColor=#F0F0F0;" vertex="1" parent="Iwt6Ft-PqrTWGJXxDrMG-33">
          <mxGeometry x="45" y="320" width="10" height="10" as="geometry" />
        </mxCell>
        <mxCell id="Iwt6Ft-PqrTWGJXxDrMG-63" value="" style="html=1;points=[[0,0,0,0,5],[0,1,0,0,-5],[1,0,0,0,5],[1,1,0,0,-5]];perimeter=orthogonalPerimeter;outlineConnect=0;targetShapes=umlLifeline;portConstraint=eastwest;newEdgeStyle={&quot;curved&quot;:0,&quot;rounded&quot;:0};fontFamily=Open Sans;fillColor=#F0F0F0;" vertex="1" parent="Iwt6Ft-PqrTWGJXxDrMG-33">
          <mxGeometry x="45" y="370" width="10" height="70" as="geometry" />
        </mxCell>
        <mxCell id="Iwt6Ft-PqrTWGJXxDrMG-78" value="" style="html=1;points=[[0,0,0,0,5],[0,1,0,0,-5],[1,0,0,0,5],[1,1,0,0,-5]];perimeter=orthogonalPerimeter;outlineConnect=0;targetShapes=umlLifeline;portConstraint=eastwest;newEdgeStyle={&quot;curved&quot;:0,&quot;rounded&quot;:0};fontFamily=Open Sans;fillColor=#F0F0F0;" vertex="1" parent="Iwt6Ft-PqrTWGJXxDrMG-33">
          <mxGeometry x="45" y="520" width="10" height="10" as="geometry" />
        </mxCell>
        <mxCell id="Iwt6Ft-PqrTWGJXxDrMG-71" value="" style="html=1;points=[[0,0,0,0,5],[0,1,0,0,-5],[1,0,0,0,5],[1,1,0,0,-5]];perimeter=orthogonalPerimeter;outlineConnect=0;targetShapes=umlLifeline;portConstraint=eastwest;newEdgeStyle={&quot;curved&quot;:0,&quot;rounded&quot;:0};fontFamily=Open Sans;fillColor=#F0F0F0;" vertex="1" parent="Iwt6Ft-PqrTWGJXxDrMG-33">
          <mxGeometry x="45" y="650" width="10" height="10" as="geometry" />
        </mxCell>
      </root>
    </mxGraphModel>
  </diagram>
</mxfile>
